<svg xmlns="http://www.w3.org/2000/svg" xmlns:xlink="http://www.w3.org/1999/xlink" width="69.357" height="50.525" viewBox="0 0 69.357 50.525">
  <defs>
    <style>
      .cls-1 {
        fill: #f6f5f1;
      }

      .cls-2 {
        filter: url(#behance);
      }
    </style>
    <filter id="behance" x="0" y="0" width="69.357" height="50.525" filterUnits="userSpaceOnUse">
      <feOffset dx="2" dy="3" input="SourceAlpha"/>
      <feGaussianBlur stdDeviation="3" result="blur"/>
      <feFlood flood-opacity="0.251"/>
      <feComposite operator="in" in2="blur"/>
      <feComposite in="SourceGraphic"/>
    </filter>
  </defs>
  <g class="cls-2" transform="matrix(1, 0, 0, 1, 0, 0)">
    <path id="behance-2" data-name="behance" class="cls-1" d="M21.226,108.727s4.86-.361,4.86-6.06-3.976-8.481-9.013-8.481H.5v31.85H17.074s10.118.32,10.118-9.4c0,0,.441-7.908-5.965-7.908Zm-5.346-8.88h1.193s2.253,0,2.253,3.314S18,106.955,16.5,106.955H7.8V99.847Zm.725,20.528H7.8v-8.512h9.271s3.358-.044,3.358,4.374C20.431,119.963,17.924,120.347,16.605,120.375Zm24.08-18.086c-12.248,0-12.238,12.238-12.238,12.238S27.607,126.7,40.685,126.7c0,0,10.9.623,10.9-8.469h-5.6s.187,3.424-5.107,3.424c0,0-5.606.376-5.606-5.541h16.5S53.576,102.29,40.685,102.29Zm-5.48,9.574s.684-4.909,5.6-4.909,4.858,4.909,4.858,4.909ZM46.973,99.984H33.832V96.062H46.973v3.922Z" transform="translate(6.5 -88.19)"/>
  </g>
</svg>
