<svg xmlns="http://www.w3.org/2000/svg" xmlns:xlink="http://www.w3.org/1999/xlink" width="72.167" height="50.525" viewBox="0 0 72.167 50.525">
  <defs>
    <style>
      .cls-1 {
        fill: #f6f5f1;
      }

      .cls-2 {
        filter: url(#Path_27);
      }

      .cls-3 {
        filter: url(#Path_26);
      }

      .cls-4 {
        filter: url(#Path_25);
      }

      .cls-5 {
        filter: url(#Path_24);
      }
    </style>
    <filter id="Path_24" x="34.473" y="2.017" width="37.695" height="45.777" filterUnits="userSpaceOnUse">
      <feOffset dx="2" dy="3" input="SourceAlpha"/>
      <feGaussianBlur stdDeviation="3" result="blur"/>
      <feFlood flood-opacity="0.251"/>
      <feComposite operator="in" in2="blur"/>
      <feComposite in="SourceGraphic"/>
    </filter>
    <filter id="Path_25" x="2.583" y="17.397" width="67.002" height="33.128" filterUnits="userSpaceOnUse">
      <feOffset dx="2" dy="3" input="SourceAlpha"/>
      <feGaussianBlur stdDeviation="3" result="blur-2"/>
      <feFlood flood-opacity="0.251"/>
      <feComposite operator="in" in2="blur-2"/>
      <feComposite in="SourceGraphic"/>
    </filter>
    <filter id="Path_26" x="0" y="2.017" width="37.695" height="45.777" filterUnits="userSpaceOnUse">
      <feOffset dx="2" dy="3" input="SourceAlpha"/>
      <feGaussianBlur stdDeviation="3" result="blur-3"/>
      <feFlood flood-opacity="0.251"/>
      <feComposite operator="in" in2="blur-3"/>
      <feComposite in="SourceGraphic"/>
    </filter>
    <filter id="Path_27" x="3.454" y="0" width="65.257" height="35.239" filterUnits="userSpaceOnUse">
      <feOffset dx="2" dy="3" input="SourceAlpha"/>
      <feGaussianBlur stdDeviation="3" result="blur-4"/>
      <feFlood flood-opacity="0.251"/>
      <feComposite operator="in" in2="blur-4"/>
      <feComposite in="SourceGraphic"/>
    </filter>
  </defs>
  <g id="Group_28" data-name="Group 28" transform="translate(-284 -268.504)">
    <g class="cls-5" transform="matrix(1, 0, 0, 1, 284, 268.5)">
      <path id="Path_24-2" data-name="Path 24" class="cls-1" d="M576.714,293.425V315.2a5.341,5.341,0,0,1-.7,2.643l-19-14.069,18.513-13.708A5.35,5.35,0,0,1,576.714,293.425Z" transform="translate(-515.55 -282.05)"/>
    </g>
    <g class="cls-4" transform="matrix(1, 0, 0, 1, 284, 268.5)">
      <path id="Path_25-2" data-name="Path 25" class="cls-1" d="M359.932,423.1a5.325,5.325,0,0,1-2.794.785H313.724a5.325,5.325,0,0,1-2.794-.785L330.3,408.756l2.17,1.608a5.218,5.218,0,0,0,5.919,0l2.17-1.608Z" transform="translate(-301.35 -385.36)"/>
    </g>
    <g class="cls-3" transform="matrix(1, 0, 0, 1, 284, 268.5)">
      <path id="Path_26-2" data-name="Path 26" class="cls-1" d="M310.695,303.775l-19,14.069a5.34,5.34,0,0,1-.7-2.643V293.425a5.35,5.35,0,0,1,1.182-3.358Z" transform="translate(-284 -282.05)"/>
    </g>
    <g class="cls-2" transform="matrix(1, 0, 0, 1, 284, 268.5)">
      <path id="Path_27-2" data-name="Path 27" class="cls-1" d="M364.913,274.859l-18.5,13.7-2.258,1.673-1.51,1.118a2.538,2.538,0,0,1-2.722,0l-1.51-1.118-2.258-1.673-18.5-13.7a5.325,5.325,0,0,1,1.922-.355h43.414A5.322,5.322,0,0,1,364.913,274.859Z" transform="translate(-307.2 -268.5)"/>
    </g>
  </g>
</svg>
