<svg xmlns="http://www.w3.org/2000/svg" xmlns:xlink="http://www.w3.org/1999/xlink" width="58.038" height="56.561" viewBox="0 0 58.038 56.561">
  <defs>
    <style>
      .cls-1 {
        fill: #f6f5f1;
      }

      .cls-2 {
        filter: url(#Path_23);
      }

      .cls-3 {
        filter: url(#Path_22);
      }

      .cls-4 {
        filter: url(#Rectangle_28);
      }
    </style>
    <filter id="Rectangle_28" x="0.819" y="12.073" width="26.518" height="44.488" filterUnits="userSpaceOnUse">
      <feOffset dx="2" dy="3" input="SourceAlpha"/>
      <feGaussianBlur stdDeviation="3" result="blur"/>
      <feFlood flood-opacity="0.251"/>
      <feComposite operator="in" in2="blur"/>
      <feComposite in="SourceGraphic"/>
    </filter>
    <filter id="Path_22" x="0" y="0" width="28.073" height="27.777" filterUnits="userSpaceOnUse">
      <feOffset dx="2" dy="3" input="SourceAlpha"/>
      <feGaussianBlur stdDeviation="3" result="blur-2"/>
      <feFlood flood-opacity="0.251"/>
      <feComposite operator="in" in2="blur-2"/>
      <feComposite in="SourceGraphic"/>
    </filter>
    <filter id="Path_23" x="13.564" y="10.263" width="44.474" height="45.298" filterUnits="userSpaceOnUse">
      <feOffset dx="2" dy="2" input="SourceAlpha"/>
      <feGaussianBlur stdDeviation="3" result="blur-3"/>
      <feFlood flood-opacity="0.251"/>
      <feComposite operator="in" in2="blur-3"/>
      <feComposite in="SourceGraphic"/>
    </filter>
  </defs>
  <g id="Group_27" data-name="Group 27" transform="translate(-1781.504 -2782.335)">
    <g id="Group_18" data-name="Group 18" transform="translate(1788.504 2788.335)">
      <g class="cls-4" transform="matrix(1, 0, 0, 1, -7, -6)">
        <rect id="Rectangle_28-2" data-name="Rectangle 28" class="cls-1" width="8.518" height="26.488" transform="translate(7.82 18.07)"/>
      </g>
      <g class="cls-3" transform="matrix(1, 0, 0, 1, -7, -6)">
        <path id="Path_22-2" data-name="Path 22" class="cls-1" d="M1793.54,2798.112a4.891,4.891,0,1,0-5.036-4.889A4.966,4.966,0,0,0,1793.54,2798.112Z" transform="translate(-1781.5 -2782.33)"/>
      </g>
    </g>
    <g class="cls-2" transform="matrix(1, 0, 0, 1, 1781.5, 2782.33)">
      <path id="Path_23-2" data-name="Path 23" class="cls-1" d="M1951.355,2931.858c0-3.725,1.781-5.943,5.19-5.943,3.132,0,4.637,2.13,4.637,5.943v13.9h8.477v-16.772c0-7.094-4.177-10.526-10.011-10.526a9.632,9.632,0,0,0-8.293,4.377v-3.568h-8.17v26.489h8.17Z" transform="translate(-1922.62 -2901.2)"/>
    </g>
  </g>
</svg>
