<svg xmlns="http://www.w3.org/2000/svg" xmlns:xlink="http://www.w3.org/1999/xlink" width="103.335" height="75.131" viewBox="0 0 103.335 75.131">
  <defs>
    <style>
      .cls-1 {
        fill: #4e4d4d;
      }

      .cls-1, .cls-2, .cls-3, .cls-4 {
        stroke: #e65055;
      }

      .cls-2 {
        fill: #0037ff;
      }

      .cls-3, .cls-6 {
        fill: #fd5258;
      }

      .cls-4 {
        fill: url(#linear-gradient);
      }

      .cls-5 {
        fill: url(#linear-gradient-2);
      }
    </style>
    <linearGradient id="linear-gradient" x1="0.5" x2="0.5" y2="1" gradientUnits="objectBoundingBox">
      <stop offset="0" stop-color="#0037ff"/>
      <stop offset="1" stop-color="#24419a"/>
    </linearGradient>
    <linearGradient id="linear-gradient-2" x1="-0.097" y1="0.636" x2="0.815" y2="0.445" gradientUnits="objectBoundingBox">
      <stop offset="0" stop-color="#3e1717"/>
      <stop offset="0.368" stop-color="#711b1e"/>
      <stop offset="0.675" stop-color="#ff484e"/>
      <stop offset="1" stop-color="#fd5258"/>
    </linearGradient>
  </defs>
  <g id="Group_10" data-name="Group 10" transform="translate(-83.826 -172.438)">
    <path id="Path_2" data-name="Path 2" class="cls-1" d="M141.411,189.647l-22.669.568V173.524l41.179-.568Z"/>
    <rect id="Rectangle_22" data-name="Rectangle 22" class="cls-2" width="14.262" height="9.219" rx="2.106" transform="translate(145.66 223.217)"/>
    <g id="Group_6" data-name="Group 6">
      <g id="Group_5" data-name="Group 5">
        <path id="Path_3" data-name="Path 3" class="cls-3" d="M156.923,199.237h29.738c0,11.413-2.334,19.541-9.251,25.935-6.048,5.622-12.966,7.264-20.314,7.264-10.378,0-17.464-3.8-22.132-8.559a29.043,29.043,0,0,1-8.3-20.837,30.036,30.036,0,0,1,8.648-21.613c4.752-4.753,12.189-8.471,22.39-8.471,5.36,0,11.15,1.211,15.561,3.891A28.26,28.26,0,0,1,183.55,188.69l-14.265,5.879a14.089,14.089,0,0,0-4.149-5.79,12.08,12.08,0,0,0-8.04-2.853,13.933,13.933,0,0,0-9.859,3.975c-3.368,3.373-5.014,8.733-5.014,13.228a18.039,18.039,0,0,0,4.584,12.45,13.636,13.636,0,0,0,10.547,4.406,12.339,12.339,0,0,0,8.3-2.68,10.239,10.239,0,0,0,3.541-6.394H156.923Z"/>
      </g>
    </g>
    <path id="Path_4" data-name="Path 4" class="cls-4" d="M126.065,222.543H104.691l-3.975,9.893H84.553l22.611-58.912h16.693l22.169,58.912H129.687ZM122,210.886l-6.625-19.08-6.448,19.08Z"/>
    <path id="Path_5" data-name="Path 5" class="cls-3" d="M126.065,222.543H104.691l-3.975,9.893H84.553l22.611-58.912h16.693l22.169,58.912H129.687ZM122,210.886l-6.625-19.08-6.448,19.08Z"/>
    <path id="Path_6" data-name="Path 6" class="cls-5" d="M129.547,189.647l1.973,4.941,14.14,37.847h7.616l-21.276-47Z"/>
    <g id="Group_8" data-name="Group 8">
      <g id="Group_7" data-name="Group 7">
        <path id="Path_7" data-name="Path 7" class="cls-1" d="M142.223,203.129m2.648,27.206a27.436,27.436,0,0,1-9.907-6.458,29.043,29.043,0,0,1-8.3-20.837,31.6,31.6,0,0,1,2.885-13.393"/>
      </g>
    </g>
    <g id="Group_9" data-name="Group 9">
      <path id="Path_8" data-name="Path 8" class="cls-6" d="M91.594,245.6H87.842l-.7,1.737H84.308L88.276,237h2.931L95.1,247.337H92.23Zm-.713-2.046-1.163-3.349-1.131,3.349Z"/>
      <path id="Path_9" data-name="Path 9" class="cls-6" d="M96.057,240.407h2.48v.868a2.614,2.614,0,0,1,2.2-1.023,2.8,2.8,0,0,1,2.046.744,2.387,2.387,0,0,1,.651,1.937v4.4h-2.48v-3.5a1.993,1.993,0,0,0-.31-1.349,1.041,1.041,0,0,0-.791-.295,1.354,1.354,0,0,0-.914.326,1.591,1.591,0,0,0-.4,1.1v3.721h-2.48Z"/>
      <path id="Path_10" data-name="Path 10" class="cls-6" d="M112.969,247.337h-2.481v-.76a2.54,2.54,0,0,1-2.092.992,3.314,3.314,0,0,1-2.434-.961,3.822,3.822,0,0,1-1.117-2.76,3.775,3.775,0,0,1,1.132-2.744,3.543,3.543,0,0,1,2.449-.929,2.742,2.742,0,0,1,2.062.9v-5.038h2.481Zm-2.93-2.295a1.663,1.663,0,0,0,.527-1.178,1.813,1.813,0,0,0-.465-1.116,1.592,1.592,0,0,0-2.233-.016,1.7,1.7,0,0,0-.48,1.178,1.569,1.569,0,0,0,.48,1.086,1.539,1.539,0,0,0,1.1.465A1.7,1.7,0,0,0,110.039,245.042Z"/>
      <path id="Path_11" data-name="Path 11" class="cls-6" d="M114.672,240.407h2.48v1.132a2.239,2.239,0,0,1,.977-.962,2.713,2.713,0,0,1,1.287-.278c.062,0,.171.014.5.03v2.341a2.189,2.189,0,0,0-1.07-.248,1.626,1.626,0,0,0-1.131.372,2.1,2.1,0,0,0-.559,1.582v2.961h-2.48Z"/>
      <path id="Path_12" data-name="Path 12" class="cls-6" d="M128.36,244.329H123.2a1.755,1.755,0,0,0,.434,1.163,1.4,1.4,0,0,0,1.023.341,1.958,1.958,0,0,0,.807-.187,1.151,1.151,0,0,0,.434-.465h2.372a3.123,3.123,0,0,1-.837,1.427,3.768,3.768,0,0,1-2.822.961,3.925,3.925,0,0,1-2.868-1.055,3.628,3.628,0,0,1-1.023-2.619,3.7,3.7,0,0,1,1.038-2.682,3.906,3.906,0,0,1,2.838-1.008,3.8,3.8,0,0,1,2.666.946,3.878,3.878,0,0,1,1.1,2.914Zm-2.279-1.426a1.66,1.66,0,0,0-.4-.744,1.445,1.445,0,0,0-1.024-.372,1.33,1.33,0,0,0-1.007.372,1.414,1.414,0,0,0-.372.744Z"/>
      <path id="Path_13" data-name="Path 13" class="cls-6" d="M130.234,245.042a3.53,3.53,0,0,0,.992.512,3.245,3.245,0,0,0,.962.17,1.049,1.049,0,0,0,.635-.186.394.394,0,0,0,.124-.325.369.369,0,0,0-.124-.311,1.581,1.581,0,0,0-.651-.248l-.651-.154a2.234,2.234,0,0,1-1.209-.6,1.675,1.675,0,0,1-.45-1.194,2.478,2.478,0,0,1,.651-1.689,3.5,3.5,0,0,1,2.48-.837,5.72,5.72,0,0,1,2.218.449l-.838,1.581a3.43,3.43,0,0,0-1.3-.341,1.049,1.049,0,0,0-.574.14.371.371,0,0,0-.217.341.4.4,0,0,0,.295.387c.233.093.434.093.822.2l.449.124a2.944,2.944,0,0,1,1.023.543,1.959,1.959,0,0,1,.528,1.38,2.316,2.316,0,0,1-.7,1.721,3.6,3.6,0,0,1-2.558.868,5.111,5.111,0,0,1-2.791-.806Z"/>
      <path id="Path_14" data-name="Path 14" class="cls-6" d="M145.471,241.476H150.8c0,2.047-.419,3.5-1.659,4.652a5.049,5.049,0,0,1-3.643,1.3,5.336,5.336,0,0,1-3.969-1.536,5.207,5.207,0,0,1-1.488-3.735,5.389,5.389,0,0,1,1.55-3.876,6.014,6.014,0,0,1,6.806-.822,5.064,5.064,0,0,1,1.846,2.124l-2.559,1.054a2.522,2.522,0,0,0-.744-1.039,2.167,2.167,0,0,0-1.442-.511,2.494,2.494,0,0,0-1.768.714,3.486,3.486,0,0,0-.9,2.371,3.234,3.234,0,0,0,.821,2.232,2.447,2.447,0,0,0,1.891.791,2.215,2.215,0,0,0,1.489-.48,1.837,1.837,0,0,0,.635-1.148h-2.2Z"/>
      <path id="Path_15" data-name="Path 15" class="cls-6" d="M157.638,240.407h2.481v6.93h-2.481v-.76a2.585,2.585,0,0,1-2.154.992,3.32,3.32,0,0,1-2.5-1.1,3.5,3.5,0,0,1-.992-2.543,3.834,3.834,0,0,1,1.069-2.775,3.563,3.563,0,0,1,2.5-.976,2.743,2.743,0,0,1,2.077.9Zm-2.6,2.325a1.622,1.622,0,0,0-.5,1.132,1.6,1.6,0,0,0,.48,1.132,1.744,1.744,0,0,0,1.116.465,1.591,1.591,0,0,0,1.117-.481,1.5,1.5,0,0,0,.465-1.116,1.532,1.532,0,0,0-.481-1.132,1.573,1.573,0,0,0-2.2,0Z"/>
      <path id="Path_16" data-name="Path 16" class="cls-6" d="M161.822,240.407h2.48v1.132a2.241,2.241,0,0,1,.978-.962,2.709,2.709,0,0,1,1.286-.278c.062,0,.171.014.5.03v2.341a2.187,2.187,0,0,0-1.069-.248,1.627,1.627,0,0,0-1.132.372,2.1,2.1,0,0,0-.559,1.582v2.961h-2.48Z"/>
      <path id="Path_17" data-name="Path 17" class="cls-6" d="M173.091,247.181a3.672,3.672,0,0,1-1.72.388,3.822,3.822,0,0,1-2.729-1.055,3.622,3.622,0,0,1-1.069-2.588,3.772,3.772,0,0,1,1.116-2.682,4,4,0,0,1,2.79-1.055,3.554,3.554,0,0,1,1.612.388v2.078a2.2,2.2,0,0,0-1.286-.45,1.626,1.626,0,0,0-1.21.48,1.689,1.689,0,0,0-.48,1.2,1.775,1.775,0,0,0,.434,1.162,1.685,1.685,0,0,0,1.271.527,1.872,1.872,0,0,0,1.271-.465Z"/>
      <path id="Path_18" data-name="Path 18" class="cls-6" d="M176.951,240.407v6.93H174.47v-6.93Z"/>
      <path id="Path_19" data-name="Path 19" class="cls-6" d="M184,240.407h2.481v6.93H184v-.76a2.585,2.585,0,0,1-2.154.992,3.32,3.32,0,0,1-2.5-1.1,3.5,3.5,0,0,1-.992-2.543,3.839,3.839,0,0,1,1.069-2.775,3.563,3.563,0,0,1,2.5-.976,2.739,2.739,0,0,1,2.077.9Zm-2.6,2.325a1.622,1.622,0,0,0-.5,1.132,1.6,1.6,0,0,0,.48,1.132,1.746,1.746,0,0,0,1.117.465,1.591,1.591,0,0,0,1.116-.481,1.5,1.5,0,0,0,.466-1.116,1.533,1.533,0,0,0-.482-1.132,1.573,1.573,0,0,0-2.2,0Z"/>
      <path id="Path_20" data-name="Path 20" class="cls-6" d="M178.16,237.167l-2.388,2.108-1.147-.853,1.97-2.388Z"/>
      <path id="Path_21" data-name="Path 21" class="cls-6" d="M127.042,237.167l-2.388,2.108-1.147-.853,1.969-2.388Z"/>
    </g>
  </g>
</svg>
